<svg xmlns="http://www.w3.org/2000/svg" xmlns:xlink="http://www.w3.org/1999/xlink" width="500" zoomAndPan="magnify" viewBox="0 0 375 374.999991" height="500" preserveAspectRatio="xMidYMid meet" version="1.2"><defs><clipPath id="9529d927da"><path d="M 84 113 L 271 113 L 271 300 L 84 300 Z M 84 113 "/></clipPath><clipPath id="17eca6d2eb"><path d="M 86.960938 110.8125 L 272.90625 115.363281 L 268.359375 301.304688 L 82.414062 296.757812 Z M 86.960938 110.8125 "/></clipPath><clipPath id="a18eac86d0"><path d="M 86.960938 110.8125 L 272.90625 115.363281 L 268.359375 301.304688 L 82.414062 296.757812 Z M 86.960938 110.8125 "/></clipPath><clipPath id="d93881b674"><path d="M 179.933594 113.089844 C 128.585938 111.832031 85.945312 152.4375 84.6875 203.785156 C 83.433594 255.132812 124.039062 297.777344 175.386719 299.03125 C 226.734375 300.289062 269.375 259.679688 270.632812 208.332031 C 271.886719 156.988281 231.28125 114.34375 179.933594 113.089844 Z M 179.933594 113.089844 "/></clipPath><clipPath id="02a6e4353a"><path d="M 236 63 L 315 63 L 315 142 L 236 142 Z M 236 63 "/></clipPath><clipPath id="5126fe57d1"><path d="M 237.53125 62.574219 L 315.507812 64.480469 L 313.601562 142.457031 L 235.625 140.550781 Z M 237.53125 62.574219 "/></clipPath><clipPath id="df8f8c3955"><path d="M 237.53125 62.574219 L 315.507812 64.480469 L 313.601562 142.457031 L 235.625 140.550781 Z M 237.53125 62.574219 "/></clipPath><clipPath id="b2eb03275b"><path d="M 276.519531 63.527344 C 254.988281 63 237.105469 80.03125 236.578125 101.5625 C 236.054688 123.09375 253.082031 140.976562 274.613281 141.503906 C 296.148438 142.03125 314.03125 125.003906 314.554688 103.46875 C 315.082031 81.9375 298.054688 64.054688 276.519531 63.527344 Z M 276.519531 63.527344 "/></clipPath></defs><g id="7eb1ebad53"><rect x="0" width="375" y="0" height="374.999991" style="fill:#ffffff;fill-opacity:1;stroke:none;"/><rect x="0" width="375" y="0" height="374.999991" style="fill:#ffffff;fill-opacity:1;stroke:none;"/><g clip-rule="nonzero" clip-path="url(#9529d927da)"><g clip-rule="nonzero" clip-path="url(#17eca6d2eb)"><g clip-rule="nonzero" clip-path="url(#a18eac86d0)"><g clip-rule="nonzero" clip-path="url(#d93881b674)"><path style="fill:none;stroke-width:32;stroke-linecap:butt;stroke-linejoin:miter;stroke:#80de09;stroke-opacity:1;stroke-miterlimit:4;" d="M 124.241722 0.00243259 C 55.623882 -0.000357572 0.00191132 55.622485 -0.00087884 124.240326 C 0.00154795 192.85804 55.624519 248.485227 124.242232 248.4828 C 192.860073 248.48559 248.481915 192.85753 248.484705 124.239689 C 248.482406 55.627193 192.859436 0.00000579713 124.241722 0.00243259 Z M 124.241722 0.00243259 " transform="matrix(0.748314,0.0183003,-0.0183003,0.748314,86.961788,110.814367)"/></g></g></g></g><path style="fill:none;stroke-width:16;stroke-linecap:round;stroke-linejoin:miter;stroke:#80de09;stroke-opacity:1;stroke-miterlimit:4;" d="M 8.068888 15.24661 C 5.031885 104.330337 103.876904 102.778871 304.600069 10.601889 " transform="matrix(0.695721,-0.278833,0.278833,0.695721,80.982707,206.720612)"/><g clip-rule="nonzero" clip-path="url(#02a6e4353a)"><g clip-rule="nonzero" clip-path="url(#5126fe57d1)"><g clip-rule="nonzero" clip-path="url(#df8f8c3955)"><g clip-rule="nonzero" clip-path="url(#b2eb03275b)"><path style="fill:none;stroke-width:32;stroke-linecap:butt;stroke-linejoin:miter;stroke:#80de09;stroke-opacity:1;stroke-miterlimit:4;" d="M 52.153922 -0.000844804 C 23.35069 -0.00190122 -0.000716174 23.352543 -0.00177259 52.155775 C 0.00239342 80.958879 23.351615 104.310413 52.154847 104.311469 C 80.963301 104.312398 104.314835 80.963176 104.310541 52.15485 C 104.311598 23.351618 80.962376 0.0000838919 52.153922 -0.000844804 Z M 52.153922 -0.000844804 " transform="matrix(0.74753,0.0182811,-0.0182811,0.74753,237.532914,62.574545)"/></g></g></g></g></g></svg>