<svg xmlns="http://www.w3.org/2000/svg" xmlns:xlink="http://www.w3.org/1999/xlink" width="500" zoomAndPan="magnify" viewBox="0 0 375 374.999991" height="500" preserveAspectRatio="xMidYMid meet" version="1.2"><defs><clipPath id="4389bece5f"><path d="M 84 113 L 271 113 L 271 300 L 84 300 Z M 84 113 "/></clipPath><clipPath id="bf8f78fe46"><path d="M 86.960938 110.8125 L 272.90625 115.363281 L 268.359375 301.304688 L 82.414062 296.757812 Z M 86.960938 110.8125 "/></clipPath><clipPath id="1a57c69012"><path d="M 86.960938 110.8125 L 272.90625 115.363281 L 268.359375 301.304688 L 82.414062 296.757812 Z M 86.960938 110.8125 "/></clipPath><clipPath id="d6b85fc243"><path d="M 179.933594 113.089844 C 128.585938 111.832031 85.945312 152.4375 84.6875 203.785156 C 83.433594 255.132812 124.039062 297.777344 175.386719 299.03125 C 226.734375 300.289062 269.375 259.679688 270.632812 208.332031 C 271.886719 156.988281 231.28125 114.34375 179.933594 113.089844 Z M 179.933594 113.089844 "/></clipPath><clipPath id="9ba9473a5d"><path d="M 236 63 L 315 63 L 315 142 L 236 142 Z M 236 63 "/></clipPath><clipPath id="071372888d"><path d="M 237.53125 62.574219 L 315.507812 64.480469 L 313.601562 142.457031 L 235.625 140.550781 Z M 237.53125 62.574219 "/></clipPath><clipPath id="6c2772ba2e"><path d="M 237.53125 62.574219 L 315.507812 64.480469 L 313.601562 142.457031 L 235.625 140.550781 Z M 237.53125 62.574219 "/></clipPath><clipPath id="8349ef4d1d"><path d="M 276.519531 63.527344 C 254.988281 63 237.105469 80.03125 236.578125 101.5625 C 236.054688 123.09375 253.082031 140.976562 274.613281 141.503906 C 296.148438 142.03125 314.03125 125.003906 314.554688 103.46875 C 315.082031 81.9375 298.054688 64.054688 276.519531 63.527344 Z M 276.519531 63.527344 "/></clipPath></defs><g id="0ddb122411"><rect x="0" width="375" y="0" height="374.999991" style="fill:#ffffff;fill-opacity:1;stroke:none;"/><rect x="0" width="375" y="0" height="374.999991" style="fill:#000000;fill-opacity:1;stroke:none;"/><g clip-rule="nonzero" clip-path="url(#4389bece5f)"><g clip-rule="nonzero" clip-path="url(#bf8f78fe46)"><g clip-rule="nonzero" clip-path="url(#1a57c69012)"><g clip-rule="nonzero" clip-path="url(#d6b85fc243)"><path style="fill:none;stroke-width:32;stroke-linecap:butt;stroke-linejoin:miter;stroke:#ffffff;stroke-opacity:1;stroke-miterlimit:4;" d="M 124.241723 0.00246143 C 55.623882 -0.000328725 0.00191202 55.622514 -0.000878135 124.240355 C 0.00154865 192.858068 55.624519 248.485256 124.242233 248.482829 C 192.860073 248.485619 248.481916 192.857559 248.484706 124.239718 C 248.482407 55.627222 192.859436 0.0000346448 124.241723 0.00246143 Z M 124.241723 0.00246143 " transform="matrix(0.748314,0.0183003,-0.0183003,0.748314,86.961788,110.814346)"/></g></g></g></g><path style="fill:none;stroke-width:16;stroke-linecap:round;stroke-linejoin:miter;stroke:#ffffff;stroke-opacity:1;stroke-miterlimit:4;" d="M 8.068888 15.24661 C 5.031885 104.330337 103.876904 102.778871 304.600069 10.601889 " transform="matrix(0.695721,-0.278833,0.278833,0.695721,80.982707,206.720612)"/><g clip-rule="nonzero" clip-path="url(#9ba9473a5d)"><g clip-rule="nonzero" clip-path="url(#071372888d)"><g clip-rule="nonzero" clip-path="url(#6c2772ba2e)"><g clip-rule="nonzero" clip-path="url(#8349ef4d1d)"><path style="fill:none;stroke-width:32;stroke-linecap:butt;stroke-linejoin:miter;stroke:#ffffff;stroke-opacity:1;stroke-miterlimit:4;" d="M 52.153921 -0.000886517 C 23.350689 -0.00194293 -0.000717194 23.352501 -0.00177361 52.155733 C 0.0023924 80.958837 23.351614 104.310371 52.154846 104.311427 C 80.9633 104.312356 104.314834 80.963135 104.31054 52.154808 C 104.311597 23.351576 80.962375 0.0000421794 52.153921 -0.000886517 Z M 52.153921 -0.000886517 " transform="matrix(0.74753,0.0182811,-0.0182811,0.74753,237.532914,62.574577)"/></g></g></g></g></g></svg>