<svg xmlns="http://www.w3.org/2000/svg" xmlns:xlink="http://www.w3.org/1999/xlink" width="500" zoomAndPan="magnify" viewBox="0 0 375 374.999991" height="500" preserveAspectRatio="xMidYMid meet" version="1.2"><defs><clipPath id="8ff5ba32b3"><path d="M 84 113 L 271 113 L 271 300 L 84 300 Z M 84 113 "/></clipPath><clipPath id="89d5081c29"><path d="M 86.960938 110.8125 L 272.90625 115.363281 L 268.359375 301.304688 L 82.414062 296.757812 Z M 86.960938 110.8125 "/></clipPath><clipPath id="93d0a21985"><path d="M 86.960938 110.8125 L 272.90625 115.363281 L 268.359375 301.304688 L 82.414062 296.757812 Z M 86.960938 110.8125 "/></clipPath><clipPath id="1fb6d18b4e"><path d="M 179.933594 113.089844 C 128.585938 111.832031 85.945312 152.4375 84.6875 203.785156 C 83.433594 255.132812 124.039062 297.777344 175.386719 299.03125 C 226.734375 300.289062 269.375 259.679688 270.632812 208.332031 C 271.886719 156.988281 231.28125 114.34375 179.933594 113.089844 Z M 179.933594 113.089844 "/></clipPath><clipPath id="e1c30de5c5"><path d="M 236 63 L 315 63 L 315 142 L 236 142 Z M 236 63 "/></clipPath><clipPath id="4caedced37"><path d="M 237.53125 62.574219 L 315.507812 64.480469 L 313.601562 142.457031 L 235.625 140.550781 Z M 237.53125 62.574219 "/></clipPath><clipPath id="c72b28d130"><path d="M 237.53125 62.574219 L 315.507812 64.480469 L 313.601562 142.457031 L 235.625 140.550781 Z M 237.53125 62.574219 "/></clipPath><clipPath id="2d4bee606c"><path d="M 276.519531 63.527344 C 254.988281 63 237.105469 80.03125 236.578125 101.5625 C 236.054688 123.09375 253.082031 140.976562 274.613281 141.503906 C 296.148438 142.03125 314.03125 125.003906 314.554688 103.46875 C 315.082031 81.9375 298.054688 64.054688 276.519531 63.527344 Z M 276.519531 63.527344 "/></clipPath></defs><g id="f058604544"><rect x="0" width="375" y="0" height="374.999991" style="fill:#ffffff;fill-opacity:1;stroke:none;"/><rect x="0" width="375" y="0" height="374.999991" style="fill:#ffffff;fill-opacity:1;stroke:none;"/><g clip-rule="nonzero" clip-path="url(#8ff5ba32b3)"><g clip-rule="nonzero" clip-path="url(#89d5081c29)"><g clip-rule="nonzero" clip-path="url(#93d0a21985)"><g clip-rule="nonzero" clip-path="url(#1fb6d18b4e)"><path style="fill:none;stroke-width:32;stroke-linecap:butt;stroke-linejoin:miter;stroke:#000000;stroke-opacity:1;stroke-miterlimit:4;" d="M 124.241724 0.00250951 C 55.623883 -0.000280645 0.0019132 55.622562 -0.000876959 124.240403 C 0.00154983 192.858116 55.62452 248.485304 124.242234 248.482877 C 192.860075 248.485667 248.481917 192.857607 248.484707 124.239766 C 248.482408 55.62727 192.859437 0.0000827241 124.241724 0.00250951 Z M 124.241724 0.00250951 " transform="matrix(0.748314,0.0183003,-0.0183003,0.748314,86.961788,110.81431)"/></g></g></g></g><path style="fill:none;stroke-width:16;stroke-linecap:round;stroke-linejoin:miter;stroke:#000000;stroke-opacity:1;stroke-miterlimit:4;" d="M 8.068917 15.246539 C 5.031913 104.330265 103.876933 102.7788 304.600098 10.601817 " transform="matrix(0.695721,-0.278833,0.278833,0.695721,80.982707,206.72067)"/><g clip-rule="nonzero" clip-path="url(#e1c30de5c5)"><g clip-rule="nonzero" clip-path="url(#4caedced37)"><g clip-rule="nonzero" clip-path="url(#c72b28d130)"><g clip-rule="nonzero" clip-path="url(#2d4bee606c)"><path style="fill:none;stroke-width:32;stroke-linecap:butt;stroke-linejoin:miter;stroke:#000000;stroke-opacity:1;stroke-miterlimit:4;" d="M 52.153922 -0.000844804 C 23.35069 -0.00190122 -0.000716174 23.352543 -0.00177259 52.155775 C 0.00239342 80.958879 23.351615 104.310413 52.154847 104.311469 C 80.963301 104.312398 104.314835 80.963176 104.310541 52.15485 C 104.311598 23.351618 80.962376 0.0000838919 52.153922 -0.000844804 Z M 52.153922 -0.000844804 " transform="matrix(0.74753,0.0182811,-0.0182811,0.74753,237.532914,62.574545)"/></g></g></g></g></g></svg>